<svg width="22" height="20" viewBox="0 0 22 20" fill="none" xmlns="http://www.w3.org/2000/svg">
<path d="M0 3.8835C0 2.10513 1.23105 0.663818 2.75 0.663818H19.25C20.7668 0.663818 22 2.10513 22 3.8835V16.7622C22 18.5381 20.7668 19.9819 19.25 19.9819H2.75C1.23105 19.9819 0 18.5381 0 16.7622V3.8835ZM2.0625 3.8835V4.9953L9.47461 12.1188C10.3598 12.9741 11.6402 12.9741 12.5254 12.1188L19.9375 4.9953V3.83822C19.9375 3.44079 19.6281 3.0333 19.25 3.0333H2.75C2.37016 3.0333 2.0625 3.44079 2.0625 3.83822V3.8835ZM2.0625 8.1194V16.7622C2.0625 17.2049 2.37016 17.5672 2.75 17.5672H19.25C19.6281 17.5672 19.9375 17.2049 19.9375 16.7622V8.1194L13.8359 13.9853C12.1859 15.5699 9.81406 15.5699 8.12539 13.9853L2.0625 8.1194Z" fill="#CFCFCF"/>
</svg>
