<svg width="81" height="26" viewBox="0 0 81 26" fill="none" xmlns="http://www.w3.org/2000/svg">
<path d="M0.556818 25V1.72727H14.9886V4.75H4.06818V11.8409H13.9545V14.8523H4.06818V25H0.556818ZM28.9972 17.7614V7.54545H32.4062V25H29.0653V21.9773H28.8835C28.482 22.9091 27.8381 23.6856 26.9517 24.3068C26.0729 24.9205 24.9782 25.2273 23.6676 25.2273C22.5464 25.2273 21.554 24.9811 20.6903 24.4886C19.8343 23.9886 19.16 23.25 18.6676 22.2727C18.1828 21.2955 17.9403 20.0871 17.9403 18.6477V7.54545H21.3381V18.2386C21.3381 19.428 21.6676 20.375 22.3267 21.0795C22.9858 21.7841 23.8419 22.1364 24.8949 22.1364C25.5313 22.1364 26.1638 21.9773 26.7926 21.6591C27.429 21.3409 27.9555 20.8598 28.3722 20.2159C28.7964 19.572 29.0047 18.7538 28.9972 17.7614ZM36.9716 25V7.54545H40.2557V10.3182H40.4375C40.7557 9.37879 41.3163 8.64015 42.1193 8.10227C42.9299 7.55682 43.8466 7.28409 44.8693 7.28409C45.0814 7.28409 45.3314 7.29167 45.6193 7.30682C45.9148 7.32197 46.1458 7.34091 46.3125 7.36364V10.6136C46.1761 10.5758 45.9337 10.5341 45.5852 10.4886C45.2367 10.4356 44.8883 10.4091 44.5398 10.4091C43.7367 10.4091 43.0208 10.5795 42.392 10.9205C41.7708 11.2538 41.2784 11.7197 40.9148 12.3182C40.5511 12.9091 40.3693 13.5833 40.3693 14.3409V25H36.9716ZM52.6506 14.6364V25H49.2528V7.54545H52.5142V10.3864H52.7301C53.1316 9.46212 53.7604 8.7197 54.6165 8.15909C55.4801 7.59848 56.5672 7.31818 57.8778 7.31818C59.0672 7.31818 60.1089 7.56818 61.0028 8.06818C61.8968 8.56061 62.59 9.29545 63.0824 10.2727C63.5748 11.25 63.821 12.4583 63.821 13.8977V25H60.4233V14.3068C60.4233 13.0417 60.0938 12.053 59.4347 11.3409C58.7756 10.6212 57.8703 10.2614 56.7188 10.2614C55.9309 10.2614 55.2301 10.4318 54.6165 10.7727C54.0104 11.1136 53.5294 11.6136 53.1733 12.2727C52.8248 12.9242 52.6506 13.7121 52.6506 14.6364ZM68.3778 25V7.54545H71.7756V25H68.3778ZM70.0938 4.85227C69.5028 4.85227 68.9953 4.6553 68.571 4.26136C68.1544 3.85985 67.946 3.38257 67.946 2.82954C67.946 2.26894 68.1544 1.79167 68.571 1.39773C68.9953 0.996211 69.5028 0.795454 70.0938 0.795454C70.6847 0.795454 71.1884 0.996211 71.6051 1.39773C72.0294 1.79167 72.2415 2.26894 72.2415 2.82954C72.2415 3.38257 72.0294 3.85985 71.6051 4.26136C71.1884 4.6553 70.6847 4.85227 70.0938 4.85227Z" fill="white"/>
<path d="M78.5852 25.2159C77.964 25.2159 77.4299 24.9962 76.983 24.5568C76.536 24.1098 76.3125 23.572 76.3125 22.9432C76.3125 22.322 76.536 21.7917 76.983 21.3523C77.4299 20.9053 77.964 20.6818 78.5852 20.6818C79.2064 20.6818 79.7405 20.9053 80.1875 21.3523C80.6345 21.7917 80.858 22.322 80.858 22.9432C80.858 23.3598 80.7519 23.7424 80.5398 24.0909C80.3352 24.4318 80.0625 24.7045 79.7216 24.9091C79.3807 25.1136 79.0019 25.2159 78.5852 25.2159Z" fill="white" fill-opacity="0.28"/>
</svg>
