<svg width="16" height="16" viewBox="0 0 16 16" fill="none" xmlns="http://www.w3.org/2000/svg">
<path d="M8.00356 3.95708C5.73214 3.95708 3.89999 5.7606 3.89999 7.99653C3.89999 10.2325 5.73214 12.036 8.00356 12.036C10.275 12.036 12.1071 10.2325 12.1071 7.99653C12.1071 5.7606 10.275 3.95708 8.00356 3.95708ZM8.00356 10.6227C6.53571 10.6227 5.33571 9.44497 5.33571 7.99653C5.33571 6.5481 6.53214 5.37036 8.00356 5.37036C9.47499 5.37036 10.6714 6.5481 10.6714 7.99653C10.6714 9.44497 9.47142 10.6227 8.00356 10.6227ZM13.2321 3.79185C13.2321 4.31567 12.8036 4.73403 12.275 4.73403C11.7429 4.73403 11.3179 4.31216 11.3179 3.79185C11.3179 3.27153 11.7464 2.84966 12.275 2.84966C12.8036 2.84966 13.2321 3.27153 13.2321 3.79185ZM15.95 4.7481C15.8893 3.48599 15.5964 2.36802 14.6571 1.44692C13.7214 0.52583 12.5857 0.237549 11.3036 0.174268C9.98214 0.100439 6.02142 0.100439 4.69999 0.174268C3.42142 0.234033 2.28571 0.522314 1.34642 1.44341C0.407136 2.3645 0.11785 3.48247 0.0535644 4.74458C-0.0214355 6.04536 -0.0214355 9.94419 0.0535644 11.245C0.114279 12.5071 0.407136 13.625 1.34642 14.5461C2.28571 15.4672 3.41785 15.7555 4.69999 15.8188C6.02142 15.8926 9.98214 15.8926 11.3036 15.8188C12.5857 15.759 13.7214 15.4708 14.6571 14.5461C15.5928 13.625 15.8857 12.5071 15.95 11.245C16.025 9.94419 16.025 6.04888 15.95 4.7481ZM14.2428 12.6407C13.9643 13.3297 13.425 13.8606 12.7214 14.1383C11.6679 14.5497 9.16785 14.4547 8.00356 14.4547C6.83928 14.4547 4.33571 14.5461 3.28571 14.1383C2.58571 13.8641 2.04642 13.3333 1.76428 12.6407C1.34642 11.6036 1.44285 9.14263 1.44285 7.99653C1.44285 6.85044 1.34999 4.38599 1.76428 3.35239C2.04285 2.66333 2.58214 2.13247 3.28571 1.85474C4.33928 1.44341 6.83928 1.53833 8.00356 1.53833C9.16785 1.53833 11.6714 1.44692 12.7214 1.85474C13.4214 2.12895 13.9607 2.65981 14.2428 3.35239C14.6607 4.3895 14.5643 6.85044 14.5643 7.99653C14.5643 9.14263 14.6607 11.6071 14.2428 12.6407Z" fill="black"/>
</svg>
