<svg width="29" height="29" viewBox="0 0 29 29" fill="none" xmlns="http://www.w3.org/2000/svg">
<path d="M14.5 28C21.9558 28 28 21.9558 28 14.5C28 7.04416 21.9558 1 14.5 1C7.04416 1 1 7.04416 1 14.5C1 21.9558 7.04416 28 14.5 28Z" stroke="black" stroke-width="2" stroke-linecap="round" stroke-linejoin="round"/>
<path d="M14.5 19.9C17.4823 19.9 19.9 17.4823 19.9 14.5C19.9 11.5177 17.4823 9.10001 14.5 9.10001C11.5176 9.10001 9.09998 11.5177 9.09998 14.5C9.09998 17.4823 11.5176 19.9 14.5 19.9Z" stroke="black" stroke-width="2" stroke-linecap="round" stroke-linejoin="round"/>
<path d="M18.3204 18.3204L24.0444 24.0444" stroke="black" stroke-width="2" stroke-linecap="round" stroke-linejoin="round"/>
<path d="M4.95557 24.0444L10.6796 18.3204" stroke="black" stroke-width="2" stroke-linecap="round" stroke-linejoin="round"/>
<path d="M18.3204 10.6796L24.0444 4.95557" stroke="black" stroke-width="2" stroke-linecap="round" stroke-linejoin="round"/>
<path d="M18.3204 10.6795L23.0859 5.91402" stroke="black" stroke-width="2" stroke-linecap="round" stroke-linejoin="round"/>
<path d="M4.95557 4.95557L10.6796 10.6796" stroke="black" stroke-width="2" stroke-linecap="round" stroke-linejoin="round"/>
</svg>
