<svg width="35" height="29" viewBox="0 0 35 29" fill="none" xmlns="http://www.w3.org/2000/svg">
<path d="M26.6591 27C28.6046 27 30.1818 25.4228 30.1818 23.4773C30.1818 21.5317 28.6046 19.9546 26.6591 19.9546C24.7135 19.9546 23.1364 21.5317 23.1364 23.4773C23.1364 25.4228 24.7135 27 26.6591 27Z" stroke="black" stroke-width="2.81818" stroke-linecap="round" stroke-linejoin="round"/>
<path d="M8.3409 27C10.2865 27 11.8636 25.4228 11.8636 23.4773C11.8636 21.5317 10.2865 19.9546 8.3409 19.9546C6.39535 19.9546 4.81818 21.5317 4.81818 23.4773C4.81818 25.4228 6.39535 27 8.3409 27Z" stroke="black" stroke-width="2.81818" stroke-linecap="round" stroke-linejoin="round"/>
<path d="M23.1364 8.68182H28.7727L33 12.9091V19.9546H23.1364V8.68182Z" stroke="black" stroke-width="2.81818" stroke-linecap="round" stroke-linejoin="round"/>
<path d="M23.1364 1.63635H2V19.9545H23.1364V1.63635Z" stroke="black" stroke-width="2.81818" stroke-linecap="round" stroke-linejoin="round"/>
</svg>
