<svg width="17" height="15" viewBox="0 0 17 15" fill="none" xmlns="http://www.w3.org/2000/svg">
<path d="M15.2525 4.03741C15.2633 4.18842 15.2633 4.33946 15.2633 4.49046C15.2633 9.0964 11.7576 14.4035 5.35025 14.4035C3.37626 14.4035 1.54252 13.8318 0 12.8395C0.280467 12.8718 0.550109 12.8826 0.841367 12.8826C2.47015 12.8826 3.96953 12.3325 5.16687 11.394C3.63514 11.3617 2.35151 10.3585 1.90925 8.97777C2.125 9.01011 2.34072 9.03169 2.56727 9.03169C2.88007 9.03169 3.19291 8.98853 3.48414 8.91306C1.8877 8.58942 0.690326 7.18716 0.690326 5.49363V5.4505C1.15414 5.70938 1.69353 5.87118 2.26518 5.89273C1.32673 5.26709 0.711908 4.19921 0.711908 2.99108C0.711908 2.34388 0.884465 1.75061 1.18651 1.23284C2.90162 3.34705 5.47968 4.72774 8.37051 4.87878C8.31659 4.61989 8.28421 4.35025 8.28421 4.08057C8.28421 2.1605 9.83752 0.596436 11.7683 0.596436C12.7715 0.596436 13.6776 1.01712 14.314 1.69669C15.1014 1.54568 15.8565 1.25442 16.5253 0.85532C16.2664 1.66435 15.7163 2.34392 14.9936 2.77536C15.6948 2.69989 16.3743 2.50568 16.9999 2.23604C16.5254 2.92637 15.9321 3.54119 15.2525 4.03741Z" fill="black"/>
</svg>
