<svg width="29" height="29" viewBox="0 0 29 29" fill="none" xmlns="http://www.w3.org/2000/svg">
<path d="M28.213 0.985414C28.7851 1.36365 29.0853 2.01746 28.9777 2.67128L25.3527 25.1494C25.2677 25.6736 24.9335 26.1328 24.4464 26.3922C23.9593 26.6516 23.3759 26.684 22.8605 26.4787L15.7068 23.6419L13.4355 27.6674C13.141 28.1915 12.5123 28.4563 11.9062 28.3104C11.3002 28.1645 10.8753 27.6458 10.8753 27.0514V21.8642C10.8753 21.5778 10.9773 21.2968 11.1642 21.0699L20.5269 9.58223C20.6685 9.19859 20.1587 8.80954 19.7906 9.12834L9.65191 17.8765L7.83941 19.438C7.31832 19.8865 6.57632 20.0108 5.92496 19.7514L1.1105 17.8386C0.476129 17.5847 0.0456598 17.0119 0.00601141 16.3527C-0.033637 15.6935 0.317535 15.0721 0.917925 14.7425L26.2929 0.909767C26.899 0.580159 27.6466 0.61258 28.2187 0.985414H28.213Z" fill="white"/>
</svg>
